<svg width="124" height="145" viewBox="0 0 124 145" fill="none" xmlns="http://www.w3.org/2000/svg">
<g clip-path="url(#clip0_96_109)">
<path d="M90.1818 145H0V18.301H90.1818V145ZM5.63636 139.369H84.5455V23.9321H5.63636V139.369Z" fill="white"/>
<path d="M101.455 140.777L86.8 138.243L87.9273 132.612L96.9455 134.301L117.518 20.5534L40.0182 6.47573L37.2 21.6796L31.5637 20.5534L35.2273 0L124 16.0485L101.455 140.777Z" fill="white"/>
<path d="M59.1818 34.9126H31.2818V40.5437H59.1818V34.9126Z" fill="white"/>
<path d="M76.3727 56.0291H14.0909V61.6601H76.3727V56.0291Z" fill="white"/>
<path d="M76.3727 68.4175H14.0909V74.0485H76.3727V68.4175Z" fill="white"/>
<path d="M76.3727 80.8059H14.0909V86.437H76.3727V80.8059Z" fill="white"/>
<path d="M76.3727 93.1941H14.0909V98.8252H76.3727V93.1941Z" fill="white"/>
<path d="M45.0909 105.583H14.0909V111.214H45.0909V105.583Z" fill="white"/>
<path d="M74.6818 128.107H62.5637V133.738H74.6818V128.107Z" fill="white"/>
</g>
<defs>
<clipPath id="clip0_96_109">
<rect width="124" height="145" fill="white"/>
</clipPath>
</defs>
</svg>
