<svg width="173" height="134" viewBox="0 0 173 134" fill="none" xmlns="http://www.w3.org/2000/svg">
<g clip-path="url(#clip0_96_129)">
<path d="M147.724 120.544H25.276C18.5357 120.544 12.9188 114.937 12.9188 108.209V25.7908C12.9188 19.0627 18.5357 13.4561 25.276 13.4561H147.724C154.464 13.4561 160.081 19.0627 160.081 25.7908V107.929C160.081 114.937 154.464 120.544 147.724 120.544ZM25.276 19.0627C21.625 19.0627 18.5357 22.1464 18.5357 25.7908V107.929C18.5357 111.854 21.625 114.937 25.276 114.937H147.724C151.375 114.937 154.464 111.854 154.464 108.209V25.7908C154.464 22.1464 151.375 19.0627 147.724 19.0627H25.276Z" fill="white"/>
<path d="M173 25.5105H167.383C167.383 14.5774 158.396 5.60669 147.443 5.60669V0C161.485 0 173 11.4937 173 25.5105Z" fill="white"/>
<path d="M25.5568 134C11.5146 134 0 122.506 0 108.49H5.61688C5.61688 119.423 14.6039 128.393 25.5568 128.393V134Z" fill="white"/>
<path d="M76.3896 93.6318C74.9854 93.6318 73.3003 93.3515 72.177 92.5105C69.3685 90.8285 67.9643 88.3054 67.9643 84.9414V48.4979C67.9643 45.4142 69.6494 42.6109 72.177 41.2092C74.7046 39.8075 78.0747 39.8075 80.8831 41.2092L112.338 59.7113C115.146 61.3933 116.55 63.9163 116.55 67.2803C116.55 70.6444 114.865 73.1674 112.338 74.569L80.6023 92.5105C79.1981 93.3515 77.7938 93.6318 76.3896 93.6318ZM76.3896 45.9749C75.8279 45.9749 75.2662 46.2552 74.9854 46.2552C74.4237 46.5356 73.5812 47.3766 73.5812 48.7783V85.2218C73.5812 86.6234 74.7046 87.4644 74.9854 87.7448C75.2662 88.0251 76.6705 88.5858 78.0747 87.7448L109.529 69.8034C110.933 68.9624 110.933 67.841 110.933 67.2803C110.933 66.7197 110.933 65.5983 109.529 64.7573L78.0747 46.5356C77.513 45.9749 76.9513 45.9749 76.3896 45.9749Z" fill="white"/>
</g>
<defs>
<clipPath id="clip0_96_129">
<rect width="173" height="134" fill="white"/>
</clipPath>
</defs>
</svg>
