<svg width="169" height="135" viewBox="0 0 169 135" fill="none" xmlns="http://www.w3.org/2000/svg">
<g clip-path="url(#clip0_96_139)">
<path d="M169 135L143.734 26.3825C142.331 20.7692 138.12 16.8399 132.505 15.7173V15.4366H129.698H85.0615H83.3771C77.4817 15.9979 72.7093 20.2079 71.3056 26.3825L65.4103 51.6424L53.3389 0H0L28.9153 124.054C30.3189 130.509 36.2143 135 42.6711 135H89.2724H89.5532C95.7292 134.439 100.782 129.948 101.905 124.054L107.52 100.198L115.661 135H169ZM42.6711 129.387C38.7409 129.387 35.3721 126.58 34.2492 122.651L7.01827 5.61331H48.8472L76.3588 124.054C76.9203 126.019 77.7625 127.703 78.8854 129.387H42.6711ZM96.5714 122.651C95.7292 126.299 92.6412 129.106 89.2724 129.387C85.6229 128.825 82.5349 126.299 81.9734 122.931L68.2176 63.9917L76.6395 27.7859C77.4817 23.8565 80.8505 21.0499 85.0615 21.0499H121.556C120.434 22.4532 119.591 24.4179 119.03 26.3825L112.854 53.3264H112.573V54.1684L96.5714 122.651ZM115.661 65.9563V71.0083H142.611V65.395H115.942L117.346 58.9397H139.523V53.3264H118.468L119.872 46.8711H136.435V41.2578H121.276L124.364 27.5052C125.206 24.1372 128.013 21.6112 131.382 21.0499C134.751 21.6112 137.558 24.1372 138.4 27.5052L161.982 129.387H120.153L110.608 87.8482L115.661 65.9563Z" fill="white"/>
<path d="M44.0747 17.1206H17.1246V22.7339H44.0747V17.1206Z" fill="white"/>
<path d="M47.1628 29.1892H20.2126V34.8025H47.1628V29.1892Z" fill="white"/>
<path d="M49.9701 41.2578H23.0199V46.8711H49.9701V41.2578Z" fill="white"/>
<path d="M53.0581 53.3264H26.108V58.9397H53.0581V53.3264Z" fill="white"/>
<path d="M56.1462 65.395H29.196V71.0083H56.1462V65.395Z" fill="white"/>
<path d="M42.3904 77.1829H32.0033V82.7962H42.3904V77.1829Z" fill="white"/>
<path d="M66.5332 112.547H39.5831V118.16H66.5332V112.547Z" fill="white"/>
<path d="M127.452 77.1829H115.661V82.7962H127.452V77.1829Z" fill="white"/>
<path d="M152.718 116.476H140.085V122.089H152.718V116.476Z" fill="white"/>
</g>
<defs>
<clipPath id="clip0_96_139">
<rect width="169" height="135" fill="white"/>
</clipPath>
</defs>
</svg>
