<svg width="206" height="43" viewBox="0 0 206 43" fill="none" xmlns="http://www.w3.org/2000/svg">
<path fill-rule="evenodd" clip-rule="evenodd" d="M206 15.756C203.677 11.8578 199.845 9.80713 194.586 9.80713C187.493 9.80713 181.989 14.2688 181.989 21.4648C181.989 28.6592 187.37 33.1209 194.586 33.1209C199.845 33.1209 203.677 31.0702 206 27.172L202.046 24.9211C200.334 27.3321 198.093 28.6592 194.504 28.6592C190.102 28.6592 187.045 25.7648 187.045 21.4648C187.045 17.0831 189.98 14.2688 194.504 14.2688C198.093 14.2688 200.334 15.5959 202.046 18.0069L206 15.756ZM159.365 21.4648C159.365 16.8815 161.852 14.1087 166.621 14.1087C171.39 14.1087 173.877 16.8815 173.877 21.4648C173.877 26.0465 171.39 28.8193 166.621 28.8193C161.852 28.8193 159.365 26.0465 159.365 21.4648ZM145.952 10.3291V32.5589H150.967V23.1522H154.391C155.166 29.5429 160.343 33.1209 166.621 33.1209C173.428 33.1209 178.932 28.9009 178.932 21.4648C178.932 14.0271 173.428 9.80713 166.621 9.80713C160.71 9.80713 155.778 12.9832 154.594 18.6504H150.967V10.3291H145.952ZM123.083 10.3291L120.066 26.2482C119.822 27.4537 119.047 27.9756 117.865 27.9756H115.419V32.5589H118.109C121.819 32.5589 124.306 30.83 125.039 26.8902L127.323 14.8323H135.964V32.5589H141.061V10.3291H123.083ZM113.828 21.4648C113.828 14.4705 108.039 9.80713 101.192 9.80713C94.3432 9.80713 88.5557 14.4705 88.5557 21.4648C88.5557 28.4576 94.3432 33.1209 101.192 33.1209C108.039 33.1209 113.828 28.4576 113.828 21.4648ZM93.6505 21.4648C93.6505 16.8815 96.9525 14.1087 101.192 14.1087C105.431 14.1087 108.733 16.8815 108.733 21.4648C108.733 26.0465 105.431 28.8193 101.192 28.8193C96.9525 28.8193 93.6505 26.0465 93.6505 21.4648ZM62.5877 10.3291V32.5589H67.6422V14.7922H79.7082V32.5589H84.8044V10.3291H62.5877Z" fill="white"/>
<path fill-rule="evenodd" clip-rule="evenodd" d="M43.928 18.6969L27.9958 21.0724C27.6152 21.1287 27.3286 20.798 27.3509 20.4199L27.8167 11.9666C27.8749 10.9197 28.4765 10.3815 29.2945 10.2599L39.4916 8.74006C40.3096 8.61699 41.0425 8.95506 41.4083 9.93963L44.3535 17.8829C44.4848 18.2402 44.3072 18.6406 43.928 18.6969ZM32.3099 41.1033L25.0118 26.8344C24.8401 26.4949 25.0655 26.1197 25.4342 26.0189L33.6564 23.7933C34.6744 23.5175 35.379 23.9148 35.7537 24.6473L40.423 33.7783C40.7977 34.5108 40.7052 35.3085 39.8797 35.9639L33.2205 41.2456C32.9219 41.4828 32.4816 41.4428 32.3099 41.1033ZM7.04494 37.0271L18.5183 25.7906C18.79 25.5237 19.2199 25.6245 19.4274 25.9433L24.0594 33.0488C24.6311 33.9281 24.4639 34.7154 23.8758 35.2922L16.5329 42.4837C15.9448 43.0605 15.1506 43.2147 14.2714 42.632L7.18526 37.9316C6.8673 37.721 6.77326 37.294 7.04494 37.0271ZM3.21452 12.017L17.5301 19.3642C17.8689 19.5377 17.9063 19.9751 17.6659 20.2687L12.3009 26.8478C11.6397 27.6618 10.8336 27.7493 10.0976 27.3712L0.938059 22.6708C0.202129 22.2927 -0.19196 21.5913 0.0931572 20.5816L2.39051 12.4292C2.49351 12.063 2.87417 11.842 3.21452 12.017ZM26.0388 0.651484L23.3936 16.4387C23.3309 16.8138 22.9234 16.9828 22.5681 16.8449L14.6177 13.7934C13.6325 13.4168 13.3041 12.6813 13.4399 11.8717L15.1342 1.76802C15.2685 0.95842 15.8194 0.369756 16.8733 0.329721L25.3924 0.000543049C25.7716 -0.0142848 26.1015 0.27634 26.0388 0.651484Z" fill="#FAB529"/>
</svg>
