<svg width="242" height="44" viewBox="0 0 242 44" fill="none" xmlns="http://www.w3.org/2000/svg">
<g clip-path="url(#clip0_96_29)">
<path d="M65.7085 7.13087L65.7284 19.6019L62.8344 19.6065L62.8186 9.67957L56.066 9.69034L56.0818 19.6172L53.1879 19.6219L53.168 7.15088L65.7085 7.13087Z" fill="white"/>
<path d="M82.1171 13.3403C82.1187 14.338 81.917 15.1863 81.5629 16.0349C81.158 16.8337 80.6514 17.5329 80.0431 18.0826C79.3839 18.6324 78.623 19.0826 77.7605 19.4331C76.8979 19.7338 75.9843 19.9348 75.0196 19.9363C74.055 19.9379 73.1409 19.7897 72.2772 19.4419C71.4136 19.1439 70.6513 18.6962 69.9903 18.0987C69.3294 17.551 68.8206 16.8534 68.4639 16.0558C68.0565 15.2583 67.9027 14.3607 67.9011 13.363C67.8995 12.3653 68.1013 11.517 68.4553 10.6684C68.8602 9.86958 69.3668 9.1704 69.9752 8.6207C70.6344 8.07093 71.3952 7.62076 72.2578 7.27019C73.1204 6.96951 74.034 6.76852 74.9986 6.76698C75.9633 6.76544 76.8774 6.91363 77.7411 7.26144C78.6047 7.55937 79.3669 8.00711 80.0279 8.60466C80.6888 9.15233 81.1977 9.8499 81.5543 10.6475C81.9111 11.4949 82.1156 12.3925 82.1171 13.3403ZM70.7443 13.3585C70.7454 14.007 70.8479 14.6054 71.1025 15.1038C71.3064 15.6023 71.6117 16.0508 72.0185 16.3994C72.3744 16.748 72.8318 17.0466 73.3398 17.1954C73.8478 17.3941 74.4065 17.493 75.0157 17.492C75.625 17.4911 76.1833 17.3904 76.6907 17.19C77.1981 16.9897 77.6546 16.7396 78.0095 16.3898C78.3643 16.04 78.6682 15.5906 78.9213 15.0914C79.1236 14.5922 79.275 13.9933 79.2739 13.3449C79.2729 12.6964 79.1704 12.0979 78.9157 11.5995C78.7118 11.101 78.4065 10.6525 77.9998 10.304C77.6438 9.95534 77.1864 9.65676 76.6784 9.50792C76.1704 9.30919 75.6118 9.21032 75.0025 9.21129C74.3933 9.21226 73.8349 9.31292 73.3275 9.51327C72.8201 9.71361 72.3636 9.96376 72.0088 10.3135C71.6539 10.6633 71.35 11.1127 71.0969 11.612C70.844 12.1611 70.7434 12.7599 70.7443 13.3585Z" fill="white"/>
<path d="M97.4405 7.08043L97.4604 19.5514L94.5665 19.556L94.5506 9.62912L89.6766 9.6369L88.4181 16.4231C88.2168 17.5209 87.7612 18.3697 87.102 18.8696C86.4427 19.3695 85.58 19.6202 84.5138 19.622L82.9907 19.6244L82.9865 17.0304L84.3574 17.0282C85.0682 17.0271 85.4739 16.7271 85.5744 16.0785L87.2356 7.14659L97.4406 7.13031L97.4405 7.08043Z" fill="white"/>
<path d="M102.568 7.07211L102.576 11.7612L104.607 11.758C104.758 10.9596 105.061 10.2607 105.466 9.61157C105.872 9.01232 106.378 8.46278 106.987 8.06274C107.596 7.6627 108.255 7.31246 109.016 7.11171C109.778 6.91095 110.539 6.76009 111.402 6.75871C112.367 6.75717 113.281 6.90536 114.094 7.20337C114.957 7.5013 115.669 7.89924 116.279 8.49687C116.889 9.04462 117.398 9.74219 117.754 10.5398C118.111 11.3373 118.316 12.2848 118.317 13.3324C118.319 14.3799 118.117 15.2782 117.763 16.1268C117.409 16.9255 116.903 17.6247 116.294 18.1744C115.686 18.724 114.925 19.1742 114.113 19.4748C113.251 19.7755 112.388 19.9265 111.423 19.9281C110.509 19.9295 109.697 19.8311 108.884 19.5829C108.071 19.3348 107.411 18.9867 106.801 18.4888C106.19 17.9909 105.682 17.443 105.275 16.7453C104.867 16.0476 104.612 15.2498 104.509 14.3521L102.58 14.3552L102.588 19.6429L99.7451 19.6474L99.7252 7.17642L102.568 7.17188L102.568 7.07211ZM107.3 13.3001C107.302 14.597 107.659 15.5942 108.32 16.3414C109.032 17.0885 110.048 17.4361 111.368 17.434C112.739 17.4318 113.754 17.081 114.413 16.3316C115.122 15.5823 115.425 14.5841 115.423 13.2871C115.421 11.9901 115.064 10.993 114.403 10.2458C113.691 9.49868 112.675 9.15111 111.355 9.15322C109.984 9.15541 108.969 9.50622 108.311 10.2555C107.652 11.0048 107.298 12.053 107.3 13.3001Z" fill="white"/>
<path d="M131.363 11.3658C130.854 10.6683 130.295 10.1703 129.634 9.8222C128.973 9.47407 128.11 9.27591 127.095 9.27753C126.435 9.27858 125.876 9.37924 125.369 9.57959C124.861 9.77993 124.405 10.0301 124.05 10.3798C123.695 10.7296 123.391 11.179 123.189 11.6283C122.987 12.1275 122.886 12.6764 122.887 13.275C122.888 13.8736 122.99 14.4221 123.194 14.9206C123.398 15.4192 123.703 15.8178 124.059 16.1664C124.415 16.515 124.873 16.8136 125.381 16.9624C125.889 17.1611 126.447 17.26 127.107 17.259C128.123 17.2573 128.935 17.0565 129.645 16.7062C130.304 16.3559 130.862 15.8063 131.369 15.157L133.605 16.4006C132.946 17.4991 132.085 18.3485 131.019 18.8989C129.954 19.4493 128.685 19.7506 127.162 19.7531C126.147 19.7547 125.233 19.6065 124.318 19.3087C123.455 19.0107 122.692 18.563 122.082 18.0152C121.472 17.4675 120.963 16.7699 120.606 15.9723C120.25 15.1748 120.045 14.2273 120.044 13.2296C120.042 12.2319 120.244 11.3337 120.598 10.4851C120.952 9.6864 121.458 8.98722 122.118 8.43744C122.777 7.88766 123.487 7.43757 124.349 7.13689C125.212 6.83621 126.126 6.6851 127.141 6.68348C128.614 6.68113 129.883 6.97841 131.001 7.52535C132.068 8.07237 132.933 8.91902 133.594 10.0154L131.363 11.3658Z" fill="white"/>
<path d="M137.361 15.8459C137.919 15.845 138.427 16.0437 138.783 16.4422C139.19 16.8406 139.394 17.2893 139.395 17.838C139.396 18.3867 139.193 18.836 138.788 19.2357C138.382 19.5856 137.926 19.7858 137.367 19.7867C136.809 19.7876 136.301 19.5889 135.945 19.2403C135.538 18.8917 135.334 18.4431 135.333 17.8445C135.332 17.2958 135.535 16.7966 135.94 16.4468C136.346 15.9972 136.802 15.8468 137.361 15.8459Z" fill="white"/>
<path d="M61.8382 31.5306C62.549 31.5295 62.9038 31.1797 62.9028 30.5312C62.902 30.0324 62.6476 29.6836 62.0887 29.4351C61.5298 29.1866 60.7173 29.0881 59.6003 29.0899C59.0418 29.0908 58.5341 29.0916 58.0773 29.1422C57.6204 29.1928 57.2143 29.2433 56.8591 29.3437C56.4531 29.4441 56.0979 29.5943 55.7427 29.7445C55.3876 29.8947 54.9818 30.1448 54.5759 30.345L53.3542 28.3516C54.3686 27.6516 55.3833 27.201 56.3475 26.95C57.3118 26.6991 58.3778 26.5976 59.5456 26.5958C60.561 26.5941 61.475 26.6924 62.2876 26.8408C63.1002 26.9892 63.8115 27.2873 64.3198 27.6856C65.2855 28.3325 65.7439 29.2297 65.7458 30.4269C65.7464 30.826 65.6455 31.2252 65.4937 31.5248C65.3419 31.8742 65.0885 32.124 64.7842 32.3739C65.9529 32.9707 66.5638 33.9674 66.566 35.3641C66.5671 36.0126 66.4156 36.5616 66.1118 37.0609C65.808 37.5603 65.4025 38.0099 64.8447 38.4597C64.2362 38.9096 63.4751 39.2101 62.6123 39.4111C61.6987 39.6121 60.6835 39.7134 59.5665 39.7152C58.8557 39.7164 58.2464 39.6674 57.637 39.6185C57.0277 39.5696 56.469 39.4209 55.961 39.272C55.4023 39.1233 54.8943 38.9245 54.3862 38.6759C53.878 38.4273 53.3699 38.1288 52.8616 37.7804L54.1783 35.6832C54.9914 36.1808 55.8551 36.5286 56.7187 36.8265C57.633 37.0745 58.5979 37.2226 59.7148 37.2208C60.9333 37.2188 61.8978 37.0677 62.6589 36.7671C63.3692 36.4667 63.7238 35.9673 63.7227 35.2689C63.722 34.8698 63.5692 34.5209 63.315 34.3218C63.0608 34.1226 62.5529 34.0237 61.8421 34.0248L56.765 34.0329L56.761 31.5387L61.8382 31.5306Z" fill="white"/>
<path d="M82.5566 33.0937C82.5582 34.0914 82.3564 34.9398 82.0024 35.7884C81.5975 36.5871 81.0909 37.2863 80.4825 37.836C79.8233 38.3858 79.0625 38.836 78.1999 39.1865C77.3373 39.4872 76.4237 39.6882 75.4591 39.6898C74.4944 39.6913 73.5803 39.5431 72.7166 39.1953C71.853 38.8974 71.0908 38.4496 70.4298 37.8521C69.7689 37.3044 69.26 36.6068 68.9034 35.8093C68.4959 35.0118 68.3422 34.1141 68.3406 33.1164C68.339 32.1187 68.5407 31.2704 68.8948 30.4218C69.2997 29.623 69.8063 28.9238 70.4147 28.3741C71.0738 27.8243 71.8347 27.3742 72.6972 27.0236C73.5598 26.7229 74.4734 26.5219 75.4381 26.5204C76.4027 26.5189 77.3168 26.6671 78.1805 27.0149C79.0441 27.3128 79.8064 27.7605 80.4674 28.3581C81.1283 28.9057 81.6371 29.6033 81.9938 30.4009C82.3504 31.1985 82.555 32.0961 82.5566 33.0937ZM71.1838 33.1119C71.1848 33.7604 71.2873 34.3588 71.542 34.8572C71.7458 35.3558 72.0512 35.8042 72.4579 36.1528C72.8139 36.5014 73.2713 36.8 73.7792 36.9488C74.2873 37.1475 74.8459 37.2464 75.4552 37.2454C76.0644 37.2445 76.6228 37.1438 77.1302 36.9435C77.6376 36.7431 78.0941 36.493 78.4489 36.1432C78.8038 35.7935 79.1077 35.344 79.3608 34.8448C79.563 34.3456 79.7144 33.7468 79.7134 33.0983C79.7123 32.4498 79.6098 31.8513 79.3552 31.3529C79.1513 30.8544 78.846 30.4059 78.4392 30.0574C78.0833 29.7088 77.6259 29.4102 77.1179 29.2613C76.6099 29.0626 76.0512 28.9637 75.442 28.9647C74.8327 28.9657 74.2744 29.0663 73.767 29.2667C73.2596 29.467 72.8031 29.7172 72.4482 30.0669C72.0934 30.4167 71.7895 30.8661 71.5364 31.3654C71.2833 31.8646 71.1827 32.4634 71.1838 33.1119Z" fill="white"/>
<path d="M97.878 26.7836L97.8979 39.2546L95.004 39.2592L94.9881 29.3323L90.1141 29.3401L88.9064 36.1263C88.7051 37.224 88.2495 38.0728 87.5902 38.5727C86.931 39.0726 86.0683 39.3234 85.0021 39.3251L83.479 39.3275L83.4748 36.7335L84.8456 36.7314C85.5564 36.7302 85.9621 36.4303 86.0626 35.7816L87.7239 26.8497L97.8781 26.8335L97.878 26.7836Z" fill="white"/>
<path d="M114.236 33.0429C114.238 34.0406 114.036 34.889 113.682 35.7376C113.277 36.5364 112.771 37.2355 112.162 37.7852C111.503 38.335 110.742 38.7852 109.88 39.1358C109.017 39.4364 108.103 39.6374 107.139 39.639C106.174 39.6405 105.26 39.4923 104.396 39.1445C103.533 38.8466 102.77 38.3988 102.109 37.8013C101.449 37.2536 100.94 36.5561 100.583 35.7585C100.176 34.961 100.022 34.0633 100.02 33.0656C100.019 32.068 100.22 31.2196 100.574 30.371C100.979 29.5722 101.486 28.873 102.094 28.3233C102.753 27.7736 103.514 27.3234 104.377 26.9728C105.24 26.6721 106.153 26.4712 107.118 26.4696C108.082 26.4681 108.997 26.6163 109.86 26.9641C110.724 27.262 111.486 27.7097 112.147 28.3073C112.808 28.855 113.317 29.5525 113.673 30.3501C114.081 31.1476 114.235 32.0453 114.236 33.0429ZM102.863 33.0611C102.865 33.7096 102.967 34.308 103.222 34.8065C103.426 35.305 103.731 35.7535 104.138 36.102C104.494 36.4506 104.951 36.7492 105.459 36.898C105.967 37.0968 106.526 37.1956 107.135 37.1947C107.744 37.1937 108.302 37.093 108.81 36.8927C109.317 36.6923 109.774 36.4422 110.129 36.0924C110.483 35.7427 110.787 35.2932 111.04 34.794C111.243 34.2948 111.394 33.696 111.393 33.0475C111.392 32.399 111.29 31.8006 111.035 31.3021C110.831 30.8036 110.526 30.3551 110.119 30.0066C109.763 29.658 109.306 29.3594 108.798 29.2106C108.29 29.0118 107.731 28.913 107.122 28.9139C106.512 28.9149 105.954 29.0156 105.447 29.2159C104.939 29.4163 104.483 29.6664 104.128 30.0162C103.773 30.3659 103.469 30.8153 103.216 31.3146C103.014 31.8138 102.862 32.4126 102.863 33.0611Z" fill="white"/>
<path d="M128.646 26.7347L128.65 29.2788L123.471 29.2871L123.487 39.214L120.593 39.2186L120.577 29.2917L115.399 29.2999L115.395 26.7559L128.646 26.7347Z" fill="white"/>
<path d="M144.09 32.9956C144.091 33.9933 143.89 34.8416 143.536 35.6902C143.131 36.489 142.624 37.1882 142.016 37.7379C141.357 38.2877 140.596 38.7378 139.733 39.0884C138.871 39.3891 137.957 39.5901 136.992 39.5916C136.028 39.5931 135.114 39.445 134.25 39.0971C133.386 38.7992 132.624 38.3515 131.963 37.7539C131.302 37.2063 130.793 36.5087 130.437 35.7111C130.029 34.9136 129.875 34.0159 129.874 33.0183C129.872 32.0206 130.074 31.1722 130.428 30.3236C130.833 29.5249 131.339 28.8257 131.948 28.276C132.607 27.7262 133.368 27.276 134.23 26.9255C135.093 26.6248 136.007 26.4238 136.971 26.4223C137.936 26.4207 138.85 26.5689 139.714 26.9167C140.577 27.2146 141.34 27.6624 142.001 28.2599C142.661 28.8076 143.17 29.5052 143.527 30.3027C143.884 31.1003 144.088 31.9979 144.09 32.9956ZM132.717 33.0137C132.718 33.6622 132.821 34.2607 133.075 34.7591C133.279 35.2576 133.584 35.7061 133.991 36.0546C134.347 36.4032 134.804 36.7018 135.312 36.8507C135.82 37.0494 136.379 37.1483 136.988 37.1473C137.598 37.1463 138.156 37.0457 138.663 36.8453C139.171 36.645 139.627 36.3948 139.982 36.0451C140.337 35.6953 140.641 35.2459 140.894 34.7466C141.096 34.2475 141.248 33.6486 141.247 33.0001C141.246 32.3516 141.143 31.7532 140.888 31.2548C140.685 30.7562 140.379 30.3078 139.972 29.9592C139.616 29.6106 139.159 29.312 138.651 29.1632C138.143 28.9645 137.584 28.8656 136.975 28.8666C136.366 28.8675 135.808 28.9682 135.3 29.1685C134.793 29.3689 134.336 29.619 133.981 29.9688C133.627 30.3185 133.323 30.768 133.07 31.2672C132.817 31.7665 132.716 32.3652 132.717 33.0137Z" fill="white"/>
<path d="M149.057 26.7019L149.071 35.3817L156.622 26.6898L159.414 26.6854L159.434 39.1564L156.54 39.161L156.527 30.5809L149.026 39.2229L146.234 39.2273L146.214 26.7064L149.057 26.7019ZM156.465 23.9465C155.755 24.5961 155.147 24.9961 154.538 25.1966C153.929 25.3971 153.32 25.4979 152.609 25.499C151.949 25.5001 151.289 25.4014 150.679 25.2028C150.07 25.0042 149.46 24.6061 148.748 23.9588L150.116 22.4601C150.472 22.7588 150.828 22.9578 151.184 23.1069C151.539 23.2559 151.996 23.3051 152.555 23.3042C153.113 23.3033 153.57 23.2527 153.925 23.1025C154.28 22.9523 154.636 22.7522 154.99 22.4523L156.465 23.9465Z" fill="white"/>
<path d="M179.374 30.9938C178.866 30.2962 178.306 29.7983 177.646 29.4501C176.985 29.102 176.122 28.9038 175.106 28.9055C174.446 28.9065 173.888 29.0072 173.381 29.2075C172.873 29.4079 172.417 29.658 172.062 30.0078C171.707 30.3575 171.403 30.807 171.201 31.2562C170.998 31.7554 170.898 32.3043 170.899 32.9029C170.9 33.5015 171.002 34.0501 171.206 34.5486C171.41 35.0471 171.715 35.4457 172.071 35.7943C172.427 36.1429 172.884 36.4415 173.392 36.5903C173.9 36.7891 174.459 36.8879 175.119 36.8869C176.134 36.8853 176.946 36.6844 177.657 36.3341C178.316 35.9839 178.874 35.4343 179.38 34.785L181.616 36.0285C180.958 37.127 180.096 37.9764 179.031 38.5268C177.966 39.0772 176.697 39.3786 175.174 39.381C174.158 39.3826 173.244 39.2344 172.33 38.9366C171.466 38.6387 170.704 38.1909 170.094 37.6432C169.484 37.0954 168.975 36.3979 168.618 35.6003C168.262 34.8027 168.057 33.8552 168.055 32.8576C168.054 31.8599 168.255 30.9616 168.609 30.113C168.964 29.3143 169.47 28.6151 170.129 28.0654C170.788 27.5156 171.499 27.0655 172.361 26.7648C173.224 26.4641 174.137 26.313 175.153 26.3114C176.625 26.3091 177.895 26.6063 179.013 27.1533C180.08 27.7003 180.944 28.547 181.606 29.6433L179.374 30.9938Z" fill="white"/>
<path d="M195.156 26.6286L195.16 29.1727L186.478 29.1865L186.482 31.5311L194.25 31.5187L194.254 34.0627L186.486 34.0751L186.49 36.5693L195.476 36.555L195.481 39.149L183.651 39.1678L183.631 26.647L195.156 26.6286Z" fill="white"/>
<path d="M206.182 31.3002C206.893 31.2991 207.248 30.9493 207.247 30.3008C207.246 29.802 206.991 29.4532 206.433 29.2047C205.874 28.9562 205.061 28.8577 203.944 28.8595C203.386 28.8604 202.878 28.8612 202.421 28.9118C201.964 28.9624 201.558 29.0129 201.203 29.1133C200.797 29.2137 200.442 29.3639 200.087 29.5141C199.731 29.6643 199.326 29.9144 198.92 30.1146L197.698 28.0713C198.712 27.3713 199.727 26.9207 200.691 26.6698C201.656 26.4188 202.722 26.3173 203.889 26.3155C204.905 26.3139 205.819 26.4122 206.631 26.5605C207.444 26.7089 208.155 27.007 208.664 27.4053C209.629 28.0523 210.088 28.9494 210.09 30.1467C210.09 30.5457 209.989 30.945 209.837 31.2445C209.686 31.5939 209.432 31.8438 209.128 32.0937C210.297 32.6904 210.908 33.6871 210.91 35.0839C210.911 35.7324 210.759 36.2813 210.456 36.7807C210.152 37.28 209.746 37.7296 209.188 38.1794C208.58 38.6294 207.819 38.9299 206.956 39.1308C206.042 39.3318 205.027 39.4332 203.91 39.435C203.199 39.4361 202.59 39.3872 201.981 39.3383C201.371 39.2894 200.813 39.1406 200.305 38.9918C199.746 38.843 199.238 38.6443 198.73 38.3957C198.222 38.147 197.714 37.8486 197.205 37.5002L198.522 35.4029C199.335 35.9005 200.199 36.2483 201.062 36.5462C201.977 36.7942 202.942 36.9423 204.059 36.9405C205.277 36.9386 206.242 36.7874 207.003 36.4869C207.713 36.1864 208.068 35.687 208.066 34.9886C208.066 34.5896 207.913 34.2406 207.659 34.0415C207.405 33.8424 206.897 33.7434 206.186 33.7445L201.109 33.7526L201.105 31.2584L206.182 31.2503L206.182 31.3002Z" fill="white"/>
<path d="M226.898 32.8633C226.9 33.8609 226.698 34.7093 226.344 35.5579C225.939 36.3567 225.433 37.0559 224.824 37.6056C224.165 38.1553 223.404 38.6055 222.542 38.9561C221.679 39.2568 220.766 39.4577 219.801 39.4593C218.836 39.4608 217.922 39.3126 217.058 38.9648C216.195 38.6669 215.433 38.2192 214.772 37.6216C214.111 37.0739 213.602 36.3764 213.245 35.5788C212.838 34.7813 212.684 33.8836 212.682 32.8859C212.681 31.8883 212.883 31.0399 213.237 30.1913C213.641 29.3925 214.148 28.6933 214.756 28.1437C215.416 27.5939 216.176 27.1437 217.039 26.7931C217.902 26.4925 218.815 26.2915 219.78 26.2899C220.745 26.2884 221.659 26.4366 222.522 26.7844C223.386 27.0823 224.148 27.5301 224.809 28.1276C225.47 28.6753 225.979 29.3728 226.336 30.1704C226.692 30.968 226.897 31.8656 226.898 32.8633ZM215.526 32.8814C215.527 33.5299 215.629 34.1283 215.884 34.6268C216.088 35.1253 216.393 35.5738 216.8 35.9223C217.156 36.2709 217.613 36.5695 218.121 36.7183C218.629 36.9171 219.188 37.0159 219.797 37.015C220.406 37.014 220.965 36.9133 221.472 36.713C221.979 36.5126 222.436 36.2625 222.791 35.9127C223.146 35.563 223.449 35.1135 223.703 34.6143C223.905 34.1151 224.056 33.5163 224.055 32.8678C224.054 32.2193 223.952 31.6209 223.697 31.1224C223.493 30.6239 223.188 30.1754 222.781 29.8269C222.425 29.4783 221.968 29.1797 221.46 29.0309C220.952 28.8321 220.393 28.7333 219.784 28.7342C219.175 28.7352 218.616 28.8359 218.109 29.0362C217.601 29.2366 217.145 29.4867 216.79 29.8365C216.435 30.1862 216.131 30.6357 215.878 31.1349C215.625 31.6341 215.525 32.2329 215.526 32.8814Z" fill="white"/>
<path d="M231.865 26.5702L231.872 31.3091L239.031 31.2977L239.023 26.5587L241.917 26.5541L241.937 39.0251L239.043 39.0297L239.035 33.8418L231.876 33.8532L231.885 39.0412L229.041 39.0457L229.021 26.5747L231.865 26.5702Z" fill="white"/>
<path d="M39.3144 43.1892C31.6442 40.8569 27.6222 33.9294 30.1511 27.8894C36.9052 28.8264 40.7233 35.2055 39.3144 43.1892Z" fill="#FAB529"/>
<path d="M22.3901 0.964093C25.4957 6.29673 24.9974 12.2337 21.1963 16.4799C20.4867 17.2293 19.1175 18.2292 18.6095 18.0305C17.6948 17.5331 16.9822 16.3869 16.7266 15.3397C15.0416 9.35634 16.862 4.71422 22.3901 0.964093Z" fill="#FAB529"/>
<path d="M9.00424 43.8363C8.74123 38.1 16.8026 31.0036 22.6443 32.8899C23.7713 39.1735 16.5203 45.0215 9.00424 43.8363Z" fill="#FAB529"/>
<path d="M27.1423 19.6134C30.179 13.5726 39.0103 11.7128 44.7033 15.8441C40.9556 21.7364 32.9366 23.545 27.1423 19.6134Z" fill="#FAB529"/>
<path d="M0.0310259 19.9058C6.6266 16.9521 14.857 20.3311 16.9476 25.9647C11.9784 29.9633 3.49478 26.9838 0.0310259 19.9058Z" fill="#FAB529"/>
</g>
<defs>
<clipPath id="clip0_96_29">
<rect width="241.875" height="43" fill="white" transform="translate(0 1) rotate(-0.091427)"/>
</clipPath>
</defs>
</svg>
