<svg width="146" height="31" viewBox="0 0 146 31" fill="none" xmlns="http://www.w3.org/2000/svg">
<path fill-rule="evenodd" clip-rule="evenodd" d="M145.927 11.3736C144.291 8.627 141.591 7.18213 137.885 7.18213C132.887 7.18213 129.01 10.3258 129.01 15.3959C129.01 20.4649 132.801 23.6086 137.885 23.6086C141.591 23.6086 144.291 22.1637 145.927 19.4171L143.141 17.8312C141.935 19.5299 140.356 20.4649 137.828 20.4649C134.726 20.4649 132.572 18.4256 132.572 15.3959C132.572 12.3087 134.64 10.3258 137.828 10.3258C140.356 10.3258 141.935 11.2608 143.141 12.9595L145.927 11.3736ZM113.069 15.3959C113.069 12.1666 114.821 10.2129 118.182 10.2129C121.542 10.2129 123.294 12.1666 123.294 15.3959C123.294 18.6241 121.542 20.5778 118.182 20.5778C114.821 20.5778 113.069 18.6241 113.069 15.3959ZM103.619 7.54988V23.2126H107.152V16.5848H109.564C110.11 21.0876 113.758 23.6086 118.182 23.6086C122.978 23.6086 126.855 20.6352 126.855 15.3959C126.855 10.1555 122.978 7.18213 118.182 7.18213C114.017 7.18213 110.541 9.41996 109.707 13.413H107.152V7.54988H103.619ZM87.5056 7.54988L85.38 18.7662C85.2075 19.6156 84.6616 19.9833 83.8286 19.9833H82.1058V23.2126H84.0011C86.6148 23.2126 88.367 21.9944 88.8834 19.2186L90.4926 10.7228H96.5813V23.2126H100.172V7.54988H87.5056ZM80.9846 15.3959C80.9846 10.4678 76.9059 7.18213 72.0814 7.18213C67.2559 7.18213 63.1782 10.4678 63.1782 15.3959C63.1782 20.3229 67.2559 23.6086 72.0814 23.6086C76.9059 23.6086 80.9846 20.3229 80.9846 15.3959ZM66.7679 15.3959C66.7679 12.1666 69.0944 10.2129 72.0814 10.2129C75.0684 10.2129 77.395 12.1666 77.395 15.3959C77.395 18.6241 75.0684 20.5778 72.0814 20.5778C69.0944 20.5778 66.7679 18.6241 66.7679 15.3959ZM44.8816 7.54988V23.2126H48.4429V10.6945H56.9443V23.2126H60.5351V7.54988H44.8816Z" fill="white"/>
<path fill-rule="evenodd" clip-rule="evenodd" d="M31.7344 13.4455L20.5089 15.1192C20.2407 15.1589 20.0388 14.9259 20.0545 14.6595L20.3827 8.70341C20.4237 7.96582 20.8476 7.58658 21.4239 7.50091L28.6086 6.43005C29.1849 6.34334 29.7014 6.58154 29.9591 7.27525L32.0342 12.8719C32.1267 13.1237 32.0016 13.4058 31.7344 13.4455ZM23.5485 29.2325L18.4064 19.179C18.2855 18.9398 18.4443 18.6755 18.7041 18.6044L24.4972 17.0363C25.2145 16.8419 25.711 17.1219 25.9749 17.638L29.2649 24.0715C29.5289 24.5876 29.4637 25.1497 28.882 25.6115L24.1901 29.3328C23.9797 29.5 23.6695 29.4718 23.5485 29.2325ZM5.7473 26.3606L13.8312 18.4435C14.0226 18.2555 14.3255 18.3265 14.4717 18.5511L17.7354 23.5575C18.1382 24.1771 18.0204 24.7318 17.606 25.1382L12.4324 30.2052C12.018 30.6116 11.4584 30.7203 10.8389 30.3097L5.84617 26.9979C5.62214 26.8495 5.55588 26.5486 5.7473 26.3606ZM3.04846 8.73893L13.1349 13.9156C13.3737 14.0379 13.4 14.346 13.2306 14.5529L9.45058 19.1884C8.98465 19.762 8.41669 19.8236 7.89817 19.5572L1.44451 16.2454C0.925985 15.979 0.648318 15.4848 0.849206 14.7733L2.46788 9.02937C2.54045 8.77132 2.80865 8.61565 3.04846 8.73893ZM19.13 0.730996L17.2663 11.8543C17.2221 12.1187 16.935 12.2378 16.6847 12.1406L11.0829 9.99053C10.3888 9.72516 10.1574 9.20697 10.2531 8.63655L11.4468 1.51769C11.5415 0.947257 11.9296 0.532496 12.6722 0.504288L18.6746 0.272355C18.9418 0.261908 19.1742 0.466677 19.13 0.730996Z" fill="#FAB529"/>
</svg>
