<svg width="112" height="31" viewBox="0 0 112 31" fill="none" xmlns="http://www.w3.org/2000/svg">
<g clip-path="url(#clip0_121_52)">
<path d="M32.8655 18.7964H40.5899V20.526H37.8114V27.9469H35.6996V20.526H32.921V18.7964H32.8655Z" fill="white"/>
<path d="M43.9246 20.9165C46.203 20.9165 47.37 22.0882 47.37 24.878V25.1012H42.3686C42.5353 26.2171 43.1466 26.6634 44.0357 26.6634C44.7026 26.6634 45.0916 26.3845 45.3694 25.9381L47.3144 26.0497C46.9254 27.333 45.814 28.1141 44.0357 28.1141C41.8128 28.1141 40.2568 26.9982 40.2568 24.5432C40.2568 22.0324 41.8128 20.9165 43.9246 20.9165ZM45.3694 23.8179C45.3139 22.9251 44.8137 22.3672 43.9246 22.3672C43.091 22.3672 42.4797 22.8136 42.313 23.8179H45.3694Z" fill="white"/>
<path d="M48.592 21.0839H50.4815V22.2556C50.9816 21.3629 51.8708 20.9165 52.7599 20.9165C54.4271 20.9165 55.7052 22.2556 55.7052 24.4874C55.7052 26.7192 54.4271 28.0583 52.7599 28.0583C51.9263 28.0583 51.1483 27.7236 50.6482 26.9424V30.5133H48.592V21.0839ZM52.0931 26.4961C53.0933 26.4961 53.6491 25.6591 53.6491 24.4874C53.6491 23.3157 53.0378 22.4788 52.0931 22.4788C51.0928 22.4788 50.5371 23.3157 50.5371 24.4874C50.5371 25.7149 51.1483 26.4961 52.0931 26.4961Z" fill="white"/>
<path d="M56.9287 21.0839H58.8181V22.2556C59.3183 21.3629 60.2074 20.9165 61.0966 20.9165C62.7637 20.9165 64.0419 22.2556 64.0419 24.4874C64.0419 26.7192 62.7637 28.0583 61.0966 28.0583C60.263 28.0583 59.485 27.7236 58.9849 26.9424V30.5133H56.9287V21.0839ZM60.4853 26.4961C61.4856 26.4961 62.0413 25.6591 62.0413 24.4874C62.0413 23.3157 61.43 22.4788 60.4853 22.4788C59.485 22.4788 58.9293 23.3157 58.9293 24.4874C58.8737 25.7149 59.485 26.4961 60.4853 26.4961Z" fill="white"/>
<path d="M72.321 21.084V27.9468H70.376V22.7021L68.3198 27.9468H65.319V21.084H67.264V26.3288L69.3201 21.084H72.321Z" fill="white"/>
<path d="M73.3217 21.084H79.8791V22.7579H77.6007V27.9468H75.5445V22.7579H73.2661V21.084H73.3217Z" fill="white"/>
<path d="M84.1022 20.9165C86.3251 20.9165 87.7143 22.3114 87.7143 24.4874C87.7143 26.6634 86.3251 28.0583 84.1022 28.0583C81.8793 28.0583 80.4344 26.6634 80.4344 24.4874C80.4344 22.3114 81.8793 20.9165 84.1022 20.9165ZM84.1022 26.4961C85.1025 26.4961 85.7138 25.6591 85.7138 24.4874C85.7138 23.3157 85.1025 22.4788 84.1022 22.4788C83.1019 22.4788 82.4906 23.3157 82.4906 24.4874C82.4906 25.6591 83.1019 26.4961 84.1022 26.4961Z" fill="white"/>
<path d="M88.9926 21.0839H90.882V22.2556C91.3821 21.3629 92.2713 20.9165 93.1604 20.9165C94.8276 20.9165 96.1057 22.2556 96.1057 24.4874C96.1057 26.7192 94.8276 28.0583 93.1604 28.0583C92.3269 28.0583 91.5489 27.7236 91.0487 26.9424V30.5133H88.9926V21.0839ZM92.4936 26.4961C93.4939 26.4961 94.0496 25.6591 94.0496 24.4874C94.0496 23.3157 93.4383 22.4788 92.4936 22.4788C91.4933 22.4788 90.9376 23.3157 90.9376 24.4874C90.9376 25.7149 91.4933 26.4961 92.4936 26.4961Z" fill="white"/>
<path d="M104.331 21.084V27.9468H102.386V22.7021L100.33 27.9468H97.3292V21.084H99.2742V26.3288L101.33 21.084H104.331Z" fill="white"/>
<path d="M112 21.084V27.9468H109.944V25.436H109.221L107.721 27.9468H105.331L107.276 25.3244C106.165 25.0455 105.609 24.3759 105.609 23.26C105.609 21.8093 106.61 21.084 108.499 21.084H112ZM109.944 22.6463H108.777C108.054 22.6463 107.665 22.9252 107.665 23.4274C107.665 23.9296 108.054 24.2085 108.777 24.2085H109.944V22.6463Z" fill="white"/>
<path d="M0.134155 0.271973V10.2594H11.4708V28.0024H21.4181V10.2594H32.7547V0.271973H0.134155Z" fill="white"/>
</g>
<defs>
<clipPath id="clip0_121_52">
<rect width="111.866" height="30.297" fill="white" transform="translate(0.134277 0.271973)"/>
</clipPath>
</defs>
</svg>
