<svg width="159" height="43" viewBox="0 0 159 43" fill="none" xmlns="http://www.w3.org/2000/svg">
<g clip-path="url(#clip0_96_58)">
<path d="M46.4551 26.291H57.4183V28.7459H53.4747V39.2781H50.4775V28.7459H46.5339V26.291H46.4551Z" fill="white"/>
<path d="M62.1509 29.3003C65.3846 29.3003 67.0409 30.9633 67.0409 34.9228V35.2395H59.9424C60.1791 36.8233 61.0467 37.4568 62.3086 37.4568C63.2551 37.4568 63.8072 37.0609 64.2015 36.4274L66.9621 36.5857C66.4099 38.4071 64.8325 39.5158 62.3086 39.5158C59.1537 39.5158 56.9453 37.932 56.9453 34.4476C56.9453 30.8841 59.1537 29.3003 62.1509 29.3003ZM64.2015 33.4182C64.1227 32.1511 63.4128 31.3592 62.1509 31.3592C60.9678 31.3592 60.1002 31.9927 59.8636 33.4182H64.2015Z" fill="white"/>
<path d="M68.7754 29.5379H71.457V31.2008C72.1669 29.9338 73.4288 29.3003 74.6908 29.3003C77.0569 29.3003 78.871 31.2008 78.871 34.3684C78.871 37.536 77.0569 39.4366 74.6908 39.4366C73.5077 39.4366 72.4035 38.9614 71.6937 37.8528V42.9209H68.7754V29.5379ZM73.7443 37.2193C75.164 37.2193 75.9527 36.0314 75.9527 34.3684C75.9527 32.7055 75.0851 31.5176 73.7443 31.5176C72.3246 31.5176 71.5359 32.7055 71.5359 34.3684C71.5359 36.1106 72.4035 37.2193 73.7443 37.2193Z" fill="white"/>
<path d="M80.6074 29.5379H83.2891V31.2008C83.9989 29.9338 85.2609 29.3003 86.5228 29.3003C88.889 29.3003 90.703 31.2008 90.703 34.3684C90.703 37.536 88.889 39.4366 86.5228 39.4366C85.3397 39.4366 84.2355 38.9614 83.5257 37.8528V42.9209H80.6074V29.5379ZM85.6552 37.2193C87.0749 37.2193 87.8636 36.0314 87.8636 34.3684C87.8636 32.7055 86.9961 31.5176 85.6552 31.5176C84.2355 31.5176 83.4468 32.7055 83.4468 34.3684C83.3679 36.1106 84.2355 37.2193 85.6552 37.2193Z" fill="white"/>
<path d="M102.453 29.5376V39.2779H99.693V31.8341L96.7747 39.2779H92.5156V29.5376H95.2761V36.9814L98.1944 29.5376H102.453Z" fill="white"/>
<path d="M103.874 29.5376H113.181V31.9133H109.947V39.2779H107.029V31.9133H103.795V29.5376H103.874Z" fill="white"/>
<path d="M119.174 29.3003C122.329 29.3003 124.301 31.28 124.301 34.3684C124.301 37.4568 122.329 39.4366 119.174 39.4366C116.019 39.4366 113.969 37.4568 113.969 34.3684C113.969 31.28 116.019 29.3003 119.174 29.3003ZM119.174 37.2193C120.594 37.2193 121.462 36.0314 121.462 34.3684C121.462 32.7055 120.594 31.5176 119.174 31.5176C117.755 31.5176 116.887 32.7055 116.887 34.3684C116.887 36.0314 117.755 37.2193 119.174 37.2193Z" fill="white"/>
<path d="M126.115 29.5379H128.797V31.2008C129.507 29.9338 130.769 29.3003 132.031 29.3003C134.397 29.3003 136.211 31.2008 136.211 34.3684C136.211 37.536 134.397 39.4366 132.031 39.4366C130.848 39.4366 129.743 38.9614 129.034 37.8528V42.9209H126.115V29.5379ZM131.084 37.2193C132.504 37.2193 133.293 36.0314 133.293 34.3684C133.293 32.7055 132.425 31.5176 131.084 31.5176C129.664 31.5176 128.876 32.7055 128.876 34.3684C128.876 36.1106 129.664 37.2193 131.084 37.2193Z" fill="white"/>
<path d="M147.885 29.5376V39.2779H145.125V31.8341L142.206 39.2779H137.947V29.5376H140.708V36.9814L143.626 29.5376H147.885Z" fill="white"/>
<path d="M158.769 29.5376V39.2779H155.851V35.7144H154.826L152.696 39.2779H149.305L152.065 35.556C150.488 35.1601 149.699 34.2098 149.699 32.626C149.699 30.5671 151.119 29.5376 153.8 29.5376H158.769ZM155.851 31.7549H154.195C153.169 31.7549 152.617 32.1509 152.617 32.8636C152.617 33.5763 153.169 33.9722 154.195 33.9722H155.851V31.7549Z" fill="white"/>
<path d="M0 0V14.175H16.0899V39.3573H30.208V14.175H46.2978V0H0Z" fill="white"/>
</g>
<defs>
<clipPath id="clip0_96_58">
<rect width="158.769" height="43" fill="white"/>
</clipPath>
</defs>
</svg>
