<svg width="171" height="31" viewBox="0 0 171 31" fill="none" xmlns="http://www.w3.org/2000/svg">
<g clip-path="url(#clip0_121_23)">
<path d="M46.2971 4.59186L46.3111 13.3787L44.2721 13.3819L44.2609 6.38762L39.5032 6.39521L39.5144 13.3895L37.4753 13.3928L37.4613 4.60596L46.2971 4.59186Z" fill="white"/>
<path d="M57.8583 8.96721C57.8594 9.67015 57.7173 10.2679 57.4678 10.8658C57.1826 11.4286 56.8256 11.9212 56.397 12.3085C55.9325 12.6959 55.3965 13.0131 54.7887 13.2601C54.1809 13.4719 53.5372 13.6136 52.8576 13.6146C52.1779 13.6157 51.5338 13.5113 50.9253 13.2662C50.3168 13.0563 49.7797 12.7409 49.314 12.3198C48.8483 11.934 48.4898 11.4425 48.2385 10.8805C47.9514 10.3186 47.8431 9.68614 47.842 8.98319C47.8409 8.28024 47.983 7.68251 48.2325 7.08461C48.5178 6.5218 48.8747 6.02916 49.3033 5.64186C49.7678 5.2545 50.3039 4.93732 50.9116 4.69031C51.5194 4.47846 52.1631 4.33684 52.8428 4.33576C53.5224 4.33467 54.1665 4.43909 54.775 4.68415C55.3835 4.89406 55.9206 5.20953 56.3863 5.63056C56.852 6.01643 57.2105 6.50793 57.4618 7.06988C57.7131 7.66699 57.8572 8.29941 57.8583 8.96721ZM49.8453 8.97999C49.846 9.43691 49.9182 9.85856 50.0976 10.2097C50.2413 10.561 50.4564 10.877 50.743 11.1226C50.9938 11.3682 51.3161 11.5786 51.674 11.6834C52.0319 11.8234 52.4255 11.8931 52.8548 11.8924C53.2841 11.8917 53.6775 11.8208 54.035 11.6797C54.3925 11.5385 54.7141 11.3622 54.9642 11.1158C55.2142 10.8694 55.4283 10.5527 55.6066 10.201C55.7491 9.84926 55.8558 9.42732 55.855 8.9704C55.8543 8.51349 55.7821 8.09184 55.6027 7.74065C55.459 7.3894 55.2439 7.07342 54.9573 6.82785C54.7065 6.58222 54.3842 6.37185 54.0263 6.26697C53.6684 6.12696 53.2748 6.05729 52.8455 6.05798C52.4162 6.05866 52.0228 6.12958 51.6653 6.27074C51.3078 6.4119 50.9862 6.58815 50.7362 6.83458C50.4861 7.08101 50.272 7.39768 50.0937 7.74944C49.9155 8.13635 49.8446 8.55823 49.8453 8.97999Z" fill="white"/>
<path d="M68.6549 4.55649L68.6689 13.3433L66.6299 13.3466L66.6187 6.35225L63.1846 6.35773L62.2979 11.1392C62.156 11.9127 61.835 12.5107 61.3705 12.8629C60.906 13.2151 60.2982 13.3918 59.547 13.393L58.4738 13.3947L58.4709 11.5671L59.4367 11.5655C59.9376 11.5647 60.2234 11.3534 60.2942 10.8964L61.4647 4.60311L68.6549 4.59163L68.6549 4.55649Z" fill="white"/>
<path d="M72.2678 4.55046L72.273 7.8543L73.7039 7.85202C73.8104 7.28949 74.0242 6.79709 74.3097 6.33972C74.5952 5.91749 74.9523 5.5303 75.3811 5.24844C75.8099 4.96658 76.2746 4.7198 76.8109 4.57836C77.3473 4.43691 77.8837 4.33061 78.4918 4.32964C79.1715 4.32856 79.8156 4.43297 80.3883 4.64294C80.9968 4.85286 81.498 5.13324 81.928 5.55432C82.3579 5.94025 82.7164 6.43175 82.9677 6.9937C83.219 7.55566 83.3631 8.22323 83.3643 8.96132C83.3655 9.69942 83.2234 10.3323 82.974 10.9302C82.7244 11.493 82.3675 11.9856 81.9389 12.3729C81.5102 12.7602 80.9741 13.0774 80.4021 13.2892C79.7943 13.501 79.1863 13.6074 78.5067 13.6085C77.8627 13.6096 77.2903 13.5402 76.7176 13.3653C76.145 13.1905 75.6796 12.9452 75.2497 12.5945C74.8199 12.2437 74.4616 11.8576 74.1746 11.366C73.8876 10.8744 73.7079 10.3123 73.6353 9.67979L72.2759 9.68196L72.2819 13.4076L70.2786 13.4108L70.2646 4.62395L72.2679 4.62076L72.2678 4.55046ZM75.6016 8.93856C75.6031 9.85239 75.8546 10.5549 76.3205 11.0814C76.8221 11.6078 77.538 11.8527 78.4681 11.8512C79.4339 11.8497 80.149 11.6025 80.6132 11.0746C81.1132 10.5465 81.3267 9.84326 81.3252 8.92943C81.3238 8.0156 81.0722 7.31305 80.6064 6.78659C80.1047 6.26018 79.3889 6.01529 78.4588 6.01677C77.4929 6.01831 76.7779 6.26548 76.3136 6.79344C75.8494 7.32139 75.6002 8.05988 75.6016 8.93856Z" fill="white"/>
<path d="M92.5558 7.57578C92.1973 7.08429 91.8032 6.73345 91.3378 6.48816C90.8724 6.24287 90.264 6.10325 89.5485 6.10439C89.0835 6.10513 88.6901 6.17606 88.3326 6.31722C87.9751 6.45838 87.6534 6.63463 87.4034 6.88106C87.1534 7.12749 86.9393 7.44416 86.7967 7.76071C86.6542 8.11241 86.5832 8.49915 86.5839 8.92091C86.5846 9.34268 86.6567 9.72919 86.8004 10.0804C86.944 10.4317 87.1591 10.7125 87.4099 10.9581C87.6607 11.2038 87.983 11.4141 88.3409 11.519C88.6989 11.659 89.0925 11.7287 89.5575 11.728C90.273 11.7268 90.8451 11.5853 91.3455 11.3385C91.8102 11.0917 92.2031 10.7045 92.5601 10.247L94.1355 11.1231C93.6716 11.8971 93.0645 12.4956 92.3139 12.8834C91.5632 13.2712 90.6693 13.4836 89.5961 13.4853C88.8806 13.4864 88.2366 13.382 87.5923 13.1721C86.9839 12.9622 86.4468 12.6468 86.0169 12.2608C85.587 11.8749 85.2285 11.3834 84.9772 10.8214C84.7259 10.2595 84.5817 9.59191 84.5806 8.88896C84.5795 8.18602 84.7216 7.55314 84.971 6.95523C85.2205 6.39248 85.5775 5.89984 86.0419 5.51248C86.5063 5.12512 87.0066 4.808 87.6144 4.59614C88.2222 4.38429 88.8659 4.27782 89.5814 4.27668C90.6188 4.27502 91.5135 4.48448 92.3011 4.86984C93.0529 5.25526 93.662 5.8518 94.1283 6.62429L92.5558 7.57578Z" fill="white"/>
<path d="M96.7821 10.7326C97.1756 10.732 97.5335 10.872 97.7844 11.1527C98.071 11.4335 98.2146 11.7496 98.2152 12.1362C98.2159 12.5228 98.0733 12.8394 97.7875 13.121C97.5018 13.3675 97.18 13.5086 96.7865 13.5092C96.393 13.5098 96.0351 13.3698 95.7843 13.1242C95.4977 12.8786 95.3541 12.5625 95.3534 12.1408C95.3528 11.7541 95.4954 11.4024 95.7811 11.1559C96.0668 10.8392 96.3886 10.7332 96.7821 10.7326Z" fill="white"/>
<path d="M43.5701 21.7834C44.0709 21.7826 44.3209 21.5362 44.3202 21.0793C44.3196 20.7278 44.1404 20.4821 43.7466 20.307C43.3528 20.1319 42.7803 20.0625 41.9933 20.0637C41.5998 20.0644 41.2421 20.0649 40.9202 20.1006C40.5983 20.1363 40.3122 20.1719 40.0619 20.2426C39.7758 20.3133 39.5256 20.4191 39.2754 20.525C39.0251 20.6308 38.7392 20.807 38.4533 20.9481L37.5925 19.5435C38.3071 19.0503 39.0221 18.7329 39.7015 18.5561C40.3809 18.3792 41.132 18.3077 41.9548 18.3064C42.6702 18.3053 43.3142 18.3746 43.8868 18.4791C44.4593 18.5836 44.9604 18.7937 45.3186 19.0743C45.999 19.5301 46.322 20.1623 46.3233 21.0058C46.3238 21.287 46.2527 21.5683 46.1457 21.7793C46.0388 22.0255 45.8602 22.2016 45.6458 22.3776C46.4693 22.7981 46.8997 23.5003 46.9012 24.4845C46.902 24.9414 46.7953 25.3282 46.5812 25.68C46.3671 26.0318 46.0814 26.3486 45.6885 26.6655C45.2597 26.9826 44.7234 27.1943 44.1155 27.3359C43.4718 27.4775 42.7565 27.5489 41.9695 27.5502C41.4687 27.551 41.0394 27.5165 40.61 27.482C40.1807 27.4476 39.7871 27.3428 39.4292 27.2379C39.0355 27.1331 38.6775 26.9931 38.3195 26.8179C37.9615 26.6427 37.6035 26.4324 37.2454 26.187L38.1731 24.7093C38.746 25.0598 39.3545 25.3049 39.963 25.5148C40.6072 25.6895 41.287 25.7939 42.074 25.7926C42.9326 25.7913 43.6121 25.6847 44.1483 25.473C44.6488 25.2613 44.8987 24.9094 44.8979 24.4174C44.8974 24.1362 44.7897 23.8903 44.6106 23.75C44.4315 23.6097 44.0737 23.54 43.5729 23.5408L39.9956 23.5465L39.9928 21.7892L43.5701 21.7834Z" fill="white"/>
<path d="M58.1679 22.8847C58.169 23.5876 58.0269 24.1854 57.7774 24.7833C57.4921 25.3461 57.1352 25.8387 56.7065 26.226C56.2421 26.6134 55.706 26.9306 55.0983 27.1776C54.4905 27.3894 53.8468 27.531 53.1671 27.5321C52.4874 27.5332 51.8434 27.4288 51.2349 27.1837C50.6264 26.9738 50.0893 26.6583 49.6236 26.2373C49.1579 25.8514 48.7994 25.36 48.5481 24.798C48.261 24.2361 48.1527 23.6036 48.1516 22.9007C48.1504 22.1977 48.2926 21.6 48.542 21.0021C48.8273 20.4393 49.1843 19.9466 49.6129 19.5593C50.0773 19.172 50.6134 18.8548 51.2212 18.6078C51.829 18.3959 52.4726 18.2543 53.1523 18.2532C53.832 18.2522 54.4761 18.3566 55.0846 18.6016C55.6931 18.8115 56.2302 19.127 56.6959 19.548C57.1615 19.9339 57.52 20.4254 57.7714 20.9874C58.0227 21.5493 58.1668 22.1817 58.1679 22.8847ZM50.1548 22.8975C50.1556 23.3544 50.2278 23.776 50.4072 24.1272C50.5509 24.4785 50.766 24.7945 51.0526 25.04C51.3034 25.2857 51.6257 25.496 51.9835 25.6009C52.3415 25.7409 52.7351 25.8106 53.1644 25.8099C53.5936 25.8092 53.987 25.7383 54.3445 25.5971C54.702 25.456 55.0237 25.2797 55.2737 25.0333C55.5237 24.7869 55.7379 24.4702 55.9162 24.1184C56.0587 23.7667 56.1653 23.3448 56.1646 22.8879C56.1639 22.431 56.0917 22.0093 55.9122 21.6581C55.7686 21.3069 55.5535 20.9909 55.2669 20.7453C55.0161 20.4997 54.6938 20.2893 54.3359 20.1845C53.978 20.0444 53.5843 19.9748 53.1551 19.9755C52.7258 19.9761 52.3324 20.0471 51.9749 20.1882C51.6174 20.3294 51.2957 20.5056 51.0457 20.7521C50.7957 20.9985 50.5816 21.3152 50.4033 21.6669C50.225 22.0187 50.1541 22.4406 50.1548 22.8975Z" fill="white"/>
<path d="M68.9631 18.4389L68.9771 27.2257L66.9381 27.2289L66.9269 20.2346L63.4928 20.2401L62.6419 25.0215C62.5 25.795 62.179 26.393 61.7145 26.7452C61.25 27.0974 60.6422 27.2741 59.891 27.2753L58.8178 27.277L58.8149 25.4494L59.7807 25.4478C60.2815 25.447 60.5674 25.2357 60.6382 24.7787L61.8087 18.4854L68.9632 18.474L68.9631 18.4389Z" fill="white"/>
<path d="M80.4888 22.849C80.4899 23.552 80.3478 24.1497 80.0983 24.7476C79.8131 25.3104 79.4561 25.8031 79.0275 26.1904C78.563 26.5777 78.0269 26.8949 77.4192 27.1419C76.8114 27.3538 76.1677 27.4954 75.488 27.4965C74.8084 27.4976 74.1643 27.3931 73.5558 27.1481C72.9473 26.9382 72.4102 26.6227 71.9445 26.2017C71.4788 25.8158 71.1203 25.3243 70.869 24.7624C70.5819 24.2005 70.4736 23.568 70.4725 22.865C70.4714 22.1621 70.6135 21.5643 70.863 20.9664C71.1482 20.4036 71.5052 19.911 71.9338 19.5237C72.3983 19.1363 72.9343 18.8192 73.5421 18.5721C74.1499 18.3603 74.7936 18.2187 75.4732 18.2176C76.1529 18.2165 76.797 18.3209 77.4055 18.566C78.014 18.7759 78.5511 19.0914 79.0168 19.5124C79.4825 19.8983 79.841 20.3898 80.0923 20.9517C80.3794 21.5136 80.4877 22.1461 80.4888 22.849ZM72.4758 22.8618C72.4765 23.3187 72.5487 23.7404 72.7281 24.0916C72.8718 24.4428 73.0869 24.7588 73.3735 25.0044C73.6243 25.25 73.9466 25.4604 74.3045 25.5653C74.6624 25.7053 75.056 25.7749 75.4853 25.7743C75.9146 25.7736 76.308 25.7027 76.6655 25.5615C77.023 25.4203 77.3446 25.2441 77.5947 24.9976C77.8447 24.7512 78.0588 24.4346 78.2371 24.0828C78.3796 23.7311 78.4863 23.3092 78.4855 22.8522C78.4848 22.3953 78.4126 21.9737 78.2332 21.6225C78.0895 21.2712 77.8744 20.9553 77.5878 20.7097C77.337 20.4641 77.0147 20.2537 76.6568 20.1488C76.2989 20.0088 75.9053 19.9391 75.476 19.9398C75.0467 19.9405 74.6533 20.0114 74.2958 20.1526C73.9383 20.2937 73.6167 20.47 73.3666 20.7164C73.1166 20.9628 72.9025 21.2795 72.7242 21.6313C72.5817 21.983 72.475 22.4049 72.4758 22.8618Z" fill="white"/>
<path d="M90.6416 18.4045L90.6444 20.197L86.9956 20.2029L87.0068 27.1972L84.9678 27.2004L84.9566 20.2061L81.3078 20.2119L81.3049 18.4194L90.6416 18.4045Z" fill="white"/>
<path d="M101.523 22.8158C101.524 23.5188 101.382 24.1165 101.133 24.7144C100.847 25.2772 100.49 25.7699 100.062 26.1572C99.5973 26.5445 99.0613 26.8617 98.4535 27.1087C97.8457 27.3206 97.202 27.4622 96.5224 27.4633C95.8427 27.4644 95.1986 27.3599 94.5901 27.1149C93.9816 26.905 93.4445 26.5895 92.9788 26.1685C92.5131 25.7826 92.1546 25.2911 91.9033 24.7291C91.6162 24.1672 91.5079 23.5348 91.5068 22.8318C91.5057 22.1289 91.6478 21.5311 91.8973 20.9332C92.1825 20.3704 92.5395 19.8778 92.9681 19.4905C93.4326 19.1031 93.9686 18.7859 94.5764 18.5389C95.1842 18.3271 95.8279 18.1855 96.5076 18.1844C97.1872 18.1833 97.8313 18.2877 98.4398 18.5328C99.0483 18.7427 99.5854 19.0582 100.051 19.4792C100.517 19.8651 100.875 20.3566 101.127 20.9185C101.378 21.4805 101.522 22.1129 101.523 22.8158ZM93.5101 22.8286C93.5108 23.2855 93.583 23.7072 93.7624 24.0584C93.9061 24.4096 94.1212 24.7256 94.4078 24.9712C94.6586 25.2168 94.9809 25.4272 95.3388 25.5321C95.6967 25.6721 96.0903 25.7417 96.5196 25.7411C96.9489 25.7404 97.3423 25.6694 97.6998 25.5283C98.0573 25.3871 98.3789 25.2109 98.629 24.9644C98.879 24.718 99.0931 24.4013 99.2714 24.0496C99.4139 23.6979 99.5206 23.276 99.5198 22.819C99.5191 22.3621 99.4469 21.9405 99.2675 21.5893C99.1238 21.238 98.9087 20.9221 98.6221 20.6765C98.3713 20.4308 98.049 20.2205 97.6911 20.1156C97.3332 19.9756 96.9396 19.9059 96.5103 19.9066C96.081 19.9073 95.6876 19.9782 95.3301 20.1194C94.9726 20.2605 94.651 20.4368 94.4009 20.6832C94.1509 20.9296 93.9368 21.2463 93.7585 21.5981C93.5802 21.9498 93.5093 22.3717 93.5101 22.8286Z" fill="white"/>
<path d="M105.023 18.3813L105.033 24.4969L110.353 18.3728L112.321 18.3697L112.335 27.1565L110.296 27.1597L110.286 21.1144L105.001 27.2033L103.034 27.2065L103.02 18.3845L105.023 18.3813ZM110.243 16.4399C109.743 16.8976 109.314 17.1794 108.885 17.3207C108.456 17.462 108.026 17.533 107.526 17.5338C107.061 17.5345 106.595 17.465 106.166 17.325C105.736 17.1851 105.307 16.9047 104.805 16.4485L105.769 15.3926C106.02 15.6031 106.271 15.7433 106.521 15.8483C106.772 15.9533 107.094 15.988 107.487 15.9873C107.881 15.9867 108.203 15.9511 108.453 15.8452C108.703 15.7394 108.953 15.5984 109.204 15.3871L110.243 16.4399Z" fill="white"/>
<path d="M126.384 21.4054C126.025 20.9139 125.631 20.563 125.166 20.3177C124.7 20.0725 124.092 19.9328 123.377 19.934C122.912 19.9347 122.518 20.0056 122.161 20.1468C121.803 20.288 121.482 20.4642 121.232 20.7106C120.982 20.9571 120.767 21.2737 120.625 21.5903C120.482 21.942 120.411 22.3287 120.412 22.7505C120.413 23.1723 120.485 23.5588 120.629 23.91C120.772 24.2613 120.987 24.5421 121.238 24.7877C121.489 25.0334 121.811 25.2437 122.169 25.3486C122.527 25.4886 122.921 25.5583 123.386 25.5575C124.101 25.5564 124.673 25.4149 125.174 25.1681C125.638 24.9213 126.031 24.5341 126.388 24.0766L127.964 24.9527C127.5 25.7267 126.893 26.3252 126.142 26.713C125.391 27.1008 124.497 27.3131 123.424 27.3149C122.709 27.316 122.065 27.2116 121.42 27.0017C120.812 26.7918 120.275 26.4763 119.845 26.0904C119.415 25.7045 119.057 25.213 118.805 24.651C118.554 24.0891 118.41 23.4215 118.409 22.7186C118.408 22.0156 118.55 21.3827 118.799 20.7848C119.049 20.2221 119.406 19.7294 119.87 19.3421C120.334 18.9547 120.835 18.6376 121.443 18.4257C122.05 18.2139 122.694 18.1074 123.41 18.1063C124.447 18.1046 125.342 18.3141 126.129 18.6994C126.881 19.0849 127.49 19.6814 127.956 20.4539L126.384 21.4054Z" fill="white"/>
<path d="M137.503 18.3298L137.506 20.1223L131.389 20.1321L131.392 21.784L136.865 21.7753L136.868 23.5678L131.395 23.5765L131.397 25.3339L137.729 25.3238L137.732 27.1514L129.397 27.1647L129.383 18.3428L137.503 18.3298Z" fill="white"/>
<path d="M145.272 21.6213C145.773 21.6205 146.023 21.3741 146.022 20.9172C146.022 20.5657 145.842 20.32 145.449 20.1449C145.055 19.9697 144.482 19.9004 143.695 19.9016C143.302 19.9022 142.944 19.9028 142.622 19.9385C142.3 19.9741 142.014 20.0097 141.764 20.0804C141.478 20.1512 141.228 20.257 140.977 20.3629C140.727 20.4687 140.441 20.6449 140.155 20.786L139.294 19.3463C140.009 18.8531 140.724 18.5356 141.403 18.3588C142.083 18.182 142.834 18.1105 143.657 18.1092C144.372 18.108 145.016 18.1773 145.589 18.2818C146.161 18.3863 146.662 18.5964 147.021 18.877C147.701 19.3329 148.024 19.965 148.025 20.8085C148.026 21.0897 147.955 21.371 147.848 21.5821C147.741 21.8283 147.562 22.0043 147.348 22.1804C148.171 22.6008 148.602 23.3031 148.603 24.2872C148.604 24.7441 148.497 25.1309 148.283 25.4827C148.069 25.8345 147.783 26.1513 147.39 26.4683C146.962 26.7853 146.425 26.997 145.817 27.1386C145.174 27.2802 144.458 27.3516 143.671 27.3529C143.171 27.3537 142.741 27.3192 142.312 27.2848C141.883 27.2503 141.489 27.1455 141.131 27.0406C140.737 26.9358 140.379 26.7958 140.021 26.6206C139.663 26.4455 139.305 26.2352 138.947 25.9897L139.875 24.512C140.448 24.8626 141.056 25.1076 141.665 25.3176C142.309 25.4923 142.989 25.5966 143.776 25.5954C144.634 25.594 145.314 25.4875 145.85 25.2757C146.351 25.064 146.601 24.7122 146.6 24.2201C146.599 23.9389 146.492 23.6931 146.313 23.5528C146.133 23.4125 145.776 23.3427 145.275 23.3435L141.698 23.3492L141.695 21.5919L145.272 21.5862L145.272 21.6213Z" fill="white"/>
<path d="M159.868 22.7226C159.87 23.4255 159.727 24.0233 159.478 24.6212C159.193 25.184 158.836 25.6766 158.407 26.0639C157.943 26.4513 157.407 26.7685 156.799 27.0155C156.191 27.2273 155.547 27.3689 154.868 27.37C154.188 27.3711 153.544 27.2667 152.935 27.0216C152.327 26.8117 151.79 26.4962 151.324 26.0752C150.858 25.6893 150.5 25.1978 150.249 24.6359C149.962 24.074 149.853 23.4415 149.852 22.7386C149.851 22.0356 149.993 21.4379 150.243 20.84C150.528 20.2772 150.885 19.7845 151.313 19.3972C151.778 19.0099 152.314 18.6927 152.922 18.4457C153.53 18.2338 154.173 18.0922 154.853 18.0911C155.533 18.09 156.177 18.1945 156.785 18.4395C157.394 18.6494 157.931 18.9649 158.396 19.3859C158.862 19.7718 159.221 20.2633 159.472 20.8253C159.723 21.3872 159.867 22.0196 159.868 22.7226ZM151.855 22.7354C151.856 23.1923 151.928 23.6139 152.108 23.9651C152.251 24.3164 152.467 24.6323 152.753 24.8779C153.004 25.1236 153.326 25.3339 153.684 25.4388C154.042 25.5788 154.436 25.6485 154.865 25.6478C155.294 25.6471 155.688 25.5762 156.045 25.435C156.403 25.2939 156.724 25.1176 156.974 24.8712C157.224 24.6248 157.438 24.3081 157.617 23.9563C157.759 23.6046 157.866 23.1827 157.865 22.7258C157.864 22.2689 157.792 21.8472 157.613 21.496C157.469 21.1448 157.254 20.8288 156.967 20.5832C156.717 20.3376 156.394 20.1272 156.036 20.0223C155.679 19.8823 155.285 19.8127 154.856 19.8133C154.426 19.814 154.033 19.885 153.675 20.0261C153.318 20.1673 152.996 20.3435 152.746 20.59C152.496 20.8364 152.282 21.1531 152.104 21.5048C151.926 21.8566 151.855 22.2784 151.855 22.7354Z" fill="white"/>
<path d="M163.368 18.2883L163.373 21.6273L168.417 21.6193L168.412 18.2803L170.451 18.277L170.465 27.0638L168.426 27.0671L168.42 23.4118L163.376 23.4198L163.382 27.0751L161.378 27.0783L161.364 18.2915L163.368 18.2883Z" fill="white"/>
<path d="M27.7002 29.9978C22.296 28.3545 19.4621 23.4736 21.244 19.2179C26.0028 19.8781 28.6929 24.3727 27.7002 29.9978Z" fill="#FAB529"/>
<path d="M15.7757 0.24684C17.9638 4.00412 17.6128 8.18721 14.9346 11.179C14.4346 11.707 13.4699 12.4115 13.1119 12.2715C12.4675 11.921 11.9654 11.1135 11.7853 10.3756C10.5981 6.15986 11.8807 2.88911 15.7757 0.24684Z" fill="#FAB529"/>
<path d="M6.34427 30.4538C6.15895 26.4122 11.8388 21.4122 15.9548 22.7412C16.7489 27.1685 11.6399 31.2889 6.34427 30.4538Z" fill="#FAB529"/>
<path d="M19.124 13.3869C21.2636 9.13066 27.4859 7.82028 31.4971 10.7311C28.8566 14.8827 23.2065 16.157 19.124 13.3869Z" fill="#FAB529"/>
<path d="M0.0218481 13.593C4.66897 11.5119 10.4679 13.8927 11.9409 17.862C8.43972 20.6794 2.46234 18.5801 0.0218481 13.593Z" fill="#FAB529"/>
</g>
<defs>
<clipPath id="clip0_121_23">
<rect width="170.421" height="30.297" fill="white" transform="translate(0 0.271973) rotate(-0.091427)"/>
</clipPath>
</defs>
</svg>
