<svg width="377" height="416" viewBox="0 0 377 416" fill="none" xmlns="http://www.w3.org/2000/svg">
<g clip-path="url(#clip0_96_94)">
<path d="M287.667 201.026L359.789 136.205C370.443 126.359 377 111.59 377 96.8205C377 79.5897 368.804 64 354.872 54.1538C340.939 44.3076 323.728 41.8461 307.337 46.7692L302.42 48.4102L303.239 40.2051C310.615 36.923 315.533 29.5384 315.533 20.5128C315.533 9.0256 305.698 -0.820557 294.224 -0.820557H82.7761C71.3022 -4.3869e-05 61.4674 9.84611 61.4674 21.3333C61.4674 30.3589 66.3848 37.7435 73.7609 41.0256L74.5804 49.2307L69.663 46.7692C53.2717 41.0256 36.0609 43.4871 22.1283 54.1538C8.19565 64 0 79.5897 0 96.8205C0 111.59 6.55652 126.359 17.2109 136.205L88.513 201.026C97.5283 228.103 117.198 249.436 141.785 261.744L145.063 263.385C149.161 268.308 150.8 274.051 149.98 279.795C149.98 286.359 146.702 292.103 141.785 297.026L139.326 299.487C135.228 303.59 128.672 306.051 122.935 306.051H114.739V355.282H96.7087V363.487C96.7087 369.231 91.7913 374.154 86.0543 374.154H77.8587V416.82H299.141V374.154H290.946C285.209 374.154 280.291 369.231 280.291 363.487V355.282H262.261V306.051H254.065C248.328 306.051 242.591 303.59 237.674 299.487L234.396 297.026C229.478 292.923 227.02 286.359 226.2 279.795C226.2 274.051 227.839 268.308 231.117 263.385L234.396 261.744C259.802 249.436 278.652 227.282 287.667 201.026ZM312.254 62.3589C323.728 58.2564 335.202 59.8974 345.037 67.282C354.872 73.8461 360.609 85.3333 360.609 96.8205C360.609 107.487 356.511 116.513 348.315 123.897L292.585 173.949L299.961 66.4615L312.254 62.3589ZM82.7761 16.4102H293.404C295.863 16.4102 298.322 18.8717 298.322 21.3333C298.322 23.7948 295.863 26.2564 293.404 26.2564H82.7761C80.3174 26.2564 77.8587 24.6153 77.8587 21.3333C77.8587 18.0512 80.3174 16.4102 82.7761 16.4102ZM16.3913 96.8205C16.3913 85.3333 22.1283 73.8461 31.963 67.282C41.7978 60.7179 53.2717 58.2564 64.7457 62.3589L76.2196 66.4615L83.5956 173.949L28.6848 123.897C20.4891 117.333 16.3913 107.487 16.3913 96.8205ZM265.539 370.872C267.998 379.077 274.554 385.641 282.75 388.102V399.59H94.25V388.102C102.446 385.641 109.002 379.077 111.461 370.872H114.739H262.261H265.539ZM131.13 354.461V321.641H245.87V354.461H131.13ZM220.463 305.231H155.717C162.274 298.667 165.552 289.641 166.372 280.615C166.372 277.333 166.372 273.231 165.552 269.949C172.928 271.59 180.304 272.41 188.5 272.41C196.696 272.41 204.072 271.59 211.448 269.949C210.628 273.231 210.628 276.513 210.628 280.615C210.628 289.641 214.726 298.667 220.463 305.231ZM188.5 256C142.604 256 103.265 219.897 99.987 173.949L90.9717 42.6666H286.848L277.833 173.949C273.735 219.897 234.396 256 188.5 256Z" fill="#FAB529"/>
</g>
<defs>
<clipPath id="clip0_96_94">
<rect width="377" height="416" fill="white"/>
</clipPath>
</defs>
</svg>
