<svg width="42" height="25" viewBox="0 0 42 25" fill="none" xmlns="http://www.w3.org/2000/svg">
<path d="M34.1928 14.1889C33.5461 13.3839 33.7311 13.0257 34.1928 12.3061C34.2012 12.2979 39.543 5.025 40.093 2.55907C40.3664 1.66043 40.093 1 38.7713 1H34.3978C33.2845 1 32.7711 1.56679 32.4961 2.20093C32.4961 2.20093 30.2693 7.45479 27.1192 10.8604C26.1025 11.8445 25.6325 12.1599 25.0775 12.1599C24.8042 12.1599 24.3791 11.8445 24.3791 10.9459V2.55907C24.3791 1.48136 24.0675 1 23.1458 1H16.2689C15.5705 1 15.1555 1.50271 15.1555 1.97093C15.1555 2.99279 16.7305 3.22771 16.8939 6.10271V12.3406C16.8939 13.7075 16.6422 13.9589 16.0839 13.9589C14.5971 13.9589 10.9887 8.68364 8.85027 2.64614C8.41859 1.47479 7.99691 1.00164 6.8752 1.00164H2.50005C1.25168 1.00164 1 1.56843 1 2.20257C1 3.323 2.48672 8.89393 7.91357 16.2539C11.5304 21.2778 16.6239 24 21.2574 24C24.0425 24 24.3825 23.3954 24.3825 22.3555C24.3825 17.5551 24.1308 17.1016 25.5259 17.1016C26.1725 17.1016 27.2859 17.4171 29.886 19.8403C32.8578 22.7136 33.3461 24 35.0095 24H39.383C40.6297 24 41.2614 23.3954 40.898 22.2027C40.0664 19.6941 34.4462 14.5339 34.1928 14.1889Z" stroke="#FAB529" stroke-width="2"/>
</svg>
